<?xml version="1.0" standalone="no"?>
<!DOCTYPE svg PUBLIC "-//W3C//DTD SVG 20010904//EN"
 "http://www.w3.org/TR/2001/REC-SVG-20010904/DTD/svg10.dtd">
<svg version="1.0" xmlns="http://www.w3.org/2000/svg"
 width="635.000000pt" height="266.000000pt" viewBox="0 0 635.000000 266.000000"
 preserveAspectRatio="xMidYMid meet">

<g transform="translate(0.000000,266.000000) scale(0.100000,-0.100000)"
fill="#cc1111" stroke="none">
<path d="M806 2649 c-100 -24 -300 -153 -421 -274 -178 -176 -281 -367 -339
-627 -72 -323 -55 -670 49 -967 45 -130 67 -173 147 -292 90 -136 214 -254
400 -381 l156 -108 2186 0 2186 0 62 24 c89 33 259 120 349 177 99 64 227 198
316 330 169 250 246 319 362 319 20 0 43 5 51 10 13 9 9 16 -21 43 -20 18 -72
53 -115 78 -558 326 -626 368 -621 383 5 14 210 135 342 203 163 83 375 202
413 230 21 16 30 29 24 35 -5 5 -51 16 -102 24 -151 24 -191 54 -260 194 -105
211 -318 418 -550 535 -164 82 69 75 -2384 74 -1290 -1 -2207 -5 -2230 -10z
m1629 -9 c366 -16 495 -38 495 -86 0 -29 -23 -59 -124 -164 -152 -158 -223
-269 -341 -530 -26 -58 -49 -106 -50 -108 -2 -2 -46 84 -98 190 -158 319 -220
396 -479 595 -76 58 -138 107 -138 109 0 8 500 4 735 -6z m1325 -5 c119 -16
214 -42 298 -80 130 -59 133 -101 18 -205 -169 -155 -300 -509 -356 -965 -45
-363 -102 -563 -221 -775 -113 -200 -286 -364 -494 -467 -189 -94 -419 -127
-900 -128 -292 0 -335 5 -335 37 0 6 44 52 98 102 242 225 327 328 402 488 75
161 115 316 160 613 87 573 182 818 405 1040 221 222 494 348 765 353 30 1
102 -5 160 -13z m-1837 -245 c31 -25 159 -184 209 -261 89 -138 174 -342 214
-519 27 -115 24 -373 -4 -507 -38 -175 -103 -330 -223 -533 -72 -121 -176
-233 -225 -243 -67 -13 -118 19 -190 120 -181 254 -294 628 -294 978 0 281 48
445 198 675 105 162 234 310 271 310 10 0 30 -9 44 -20z m2418 -14 c93 -87
254 -313 291 -409 22 -59 14 -80 -39 -97 -61 -20 -62 -28 -13 -72 41 -37 442
-243 789 -404 52 -25 92 -46 90 -48 -2 -1 -140 -65 -307 -141 -402 -183 -612
-298 -612 -336 0 -3 13 -9 30 -12 82 -17 92 -97 25 -207 -35 -57 -278 -362
-293 -367 -4 -2 -55 43 -113 100 -125 120 -187 210 -254 367 -156 370 -168
828 -30 1150 96 223 312 511 383 510 9 0 33 -16 53 -34z"/>
</g>
</svg>
